<svg version="1.1" xmlns="http://www.w3.org/2000/svg" viewBox="0 0 455.040302579365 625.3757037412906" width="455.040302579365" height="625.3757037412906">
  <!-- svg-source:excalidraw -->
  
  <defs>
    <style class="style-fonts">
      
    </style>
    
  </defs>
  <rect x="0" y="0" width="455.040302579365" height="625.3757037412906" fill="#ffffff"></rect><g stroke-linecap="round" transform="translate(214.34708268859623 10) rotate(0 53.36888223159093 23.64721819326587)"><path d="M11.82 0 C32.8 0, 53.77 0, 94.91 0 M11.82 0 C35.12 0, 58.42 0, 94.91 0 M94.91 0 C102.8 0, 106.74 3.94, 106.74 11.82 M94.91 0 C102.8 0, 106.74 3.94, 106.74 11.82 M106.74 11.82 C106.74 17.08, 106.74 22.34, 106.74 35.47 M106.74 11.82 C106.74 18.9, 106.74 25.97, 106.74 35.47 M106.74 35.47 C106.74 43.35, 102.8 47.29, 94.91 47.29 M106.74 35.47 C106.74 43.35, 102.8 47.29, 94.91 47.29 M94.91 47.29 C67.72 47.29, 40.53 47.29, 11.82 47.29 M94.91 47.29 C65.29 47.29, 35.66 47.29, 11.82 47.29 M11.82 47.29 C3.94 47.29, 0 43.35, 0 35.47 M11.82 47.29 C3.94 47.29, 0 43.35, 0 35.47 M0 35.47 C0 26.81, 0 18.14, 0 11.82 M0 35.47 C0 26.14, 0 16.81, 0 11.82 M0 11.82 C0 3.94, 3.94 0, 11.82 0 M0 11.82 C0 3.94, 3.94 0, 11.82 0" stroke="#1e1e1e" stroke-width="2" fill="none"></path></g><g transform="translate(235.09508479323398 21.262139788619606) rotate(0 32.620880126953125 12.385078404646492)"><svg version="1.1" viewBox="0 0 65.24176025390625 24.770156809293123" width="65.24176025390625" height="24.770156809293123"><g font-family="Helvetica, Segoe UI Emoji" font-size="21.539266790689673px" color="#1e1e1e"><text style="white-space: pre;" fill="#1e1e1e" direction="ltr" text-anchor="start" x="0.5" y="19">X0=Y0</text></g></svg></g><g transform="translate(108.14900186319443 76.28252606989781) rotate(0 104.04475513033924 9.908062723717194)"><svg version="1.1" viewBox="0 0 208.07228028774261 19.816125447434498" width="208.07228028774261" height="19.816125447434498"><g font-family="Helvetica, Segoe UI Emoji" font-size="17.23141343255174px" color="#1971c2"><text style="white-space: pre;" fill="#1971c2" direction="ltr" text-anchor="start" x="0.5" y="15">HEAD, branch-X, branch-Y</text></g></svg></g><g stroke-linecap="round"><g stroke-opacity="0.5" fill-opacity="0.5" transform="translate(10.087643500938498 129.07897103535834) rotate(0 216.01618881357481 0)"><path d="M0 0 C72.01 0, 360.03 0, 432.03 0 M0 0 C72.01 0, 360.03 0, 432.03 0" stroke="#1e1e1e" stroke-width="2" fill="none"></path></g></g><mask></mask><g stroke-linecap="round" transform="translate(51.79242780760484 162.16764796974485) rotate(0 53.36888223159093 23.64721819326587)"><path d="M11.82 0 C44.07 0, 76.31 0, 94.91 0 M11.82 0 C36.79 0, 61.75 0, 94.91 0 M94.91 0 C102.8 0, 106.74 3.94, 106.74 11.82 M94.91 0 C102.8 0, 106.74 3.94, 106.74 11.82 M106.74 11.82 C106.74 20.68, 106.74 29.54, 106.74 35.47 M106.74 11.82 C106.74 19.68, 106.74 27.53, 106.74 35.47 M106.74 35.47 C106.74 43.35, 102.8 47.29, 94.91 47.29 M106.74 35.47 C106.74 43.35, 102.8 47.29, 94.91 47.29 M94.91 47.29 C75.88 47.29, 56.85 47.29, 11.82 47.29 M94.91 47.29 C66.09 47.29, 37.26 47.29, 11.82 47.29 M11.82 47.29 C3.94 47.29, 0 43.35, 0 35.47 M11.82 47.29 C3.94 47.29, 0 43.35, 0 35.47 M0 35.47 C0 27.63, 0 19.79, 0 11.82 M0 35.47 C0 27.71, 0 19.96, 0 11.82 M0 11.82 C0 3.94, 3.94 0, 11.82 0 M0 11.82 C0 3.94, 3.94 0, 11.82 0" stroke="#1e1e1e" stroke-width="2" fill="none"></path></g><g transform="translate(72.54042991224259 173.42978775836445) rotate(0 32.620880126953125 12.385078404646492)"><svg version="1.1" viewBox="0 0 65.24176025390625 24.770156809293123" width="65.24176025390625" height="24.770156809293123"><g font-family="Helvetica, Segoe UI Emoji" font-size="21.539266790689673px" color="#1e1e1e"><text style="white-space: pre;" fill="#1e1e1e" direction="ltr" text-anchor="start" x="0.5" y="19">X0=Y0</text></g></svg></g><g stroke-linecap="round" transform="translate(229.06618264624063 160.58555757279964) rotate(0 36.37004960953027 24.65086148401565)"><path d="M12.33 0 C28.92 0, 45.51 0, 60.41 0 M12.33 0 C24.27 0, 36.22 0, 60.41 0 M60.41 0 C68.63 0, 72.74 4.11, 72.74 12.33 M60.41 0 C68.63 0, 72.74 4.11, 72.74 12.33 M72.74 12.33 C72.74 19.51, 72.74 26.69, 72.74 36.98 M72.74 12.33 C72.74 18.36, 72.74 24.39, 72.74 36.98 M72.74 36.98 C72.74 45.19, 68.63 49.3, 60.41 49.3 M72.74 36.98 C72.74 45.19, 68.63 49.3, 60.41 49.3 M60.41 49.3 C49.96 49.3, 39.51 49.3, 12.33 49.3 M60.41 49.3 C42.94 49.3, 25.46 49.3, 12.33 49.3 M12.33 49.3 C4.11 49.3, 0 45.19, 0 36.98 M12.33 49.3 C4.11 49.3, 0 45.19, 0 36.98 M0 36.98 C0 28.63, 0 20.27, 0 12.33 M0 36.98 C0 28.08, 0 19.18, 0 12.33 M0 12.33 C0 4.11, 4.11 0, 12.33 0 M0 12.33 C0 4.11, 4.11 0, 12.33 0" stroke="#1e1e1e" stroke-width="2" fill="none"></path></g><g transform="translate(252.26908748038028 172.8513406521688) rotate(0 13.167144775390625 12.385078404646492)"><svg version="1.1" viewBox="0 0 26.33428955078125 24.770156809293123" width="26.33428955078125" height="24.770156809293123"><g font-family="Helvetica, Segoe UI Emoji" font-size="21.539266790689673px" color="#1e1e1e"><text style="white-space: pre;" fill="#1e1e1e" direction="ltr" text-anchor="start" x="0.5" y="19">X1</text></g></svg></g><g stroke-linecap="round"><g transform="translate(159.18376237778665 185.70067920178735) rotate(0 34.53554592988229 0)"><path d="M0 0 C11.51 0, 57.56 0, 69.07 0 M0 0 C11.51 0, 57.56 0, 69.07 0" stroke="#1e1e1e" stroke-width="2" fill="none"></path></g></g><mask></mask><g transform="translate(27.50756558350929 227.48108732926448) rotate(0 35.392549123061 9.908062723717194)"><svg version="1.1" viewBox="0 0 70.77925837039948 19.816125447434498" width="70.77925837039948" height="19.816125447434498"><g font-family="Helvetica, Segoe UI Emoji" font-size="17.23141343255174px" color="#1971c2"><text style="white-space: pre;" fill="#1971c2" direction="ltr" text-anchor="start" x="0.5" y="15">branch-Y</text></g></svg></g><g transform="translate(259.2115404091033 226.77493112170168) rotate(0 64.21814600778862 9.908062723717194)"><svg version="1.1" viewBox="0 0 128.42566621303558 19.816125447434498" width="128.42566621303558" height="19.816125447434498"><g font-family="Helvetica, Segoe UI Emoji" font-size="17.23141343255174px" color="#1971c2"><text style="white-space: pre;" fill="#1971c2" direction="ltr" text-anchor="start" x="0.5" y="15">HEAD, branch-X</text></g></svg></g><g stroke-linecap="round"><g stroke-opacity="0.5" fill-opacity="0.5" transform="translate(10 281.8701399117813) rotate(0 216.01618881357481 0)"><path d="M0 0 C72.01 0, 360.03 0, 432.03 0 M0 0 C72.01 0, 360.03 0, 432.03 0" stroke="#1e1e1e" stroke-width="2" fill="none"></path></g></g><mask></mask><g stroke-linecap="round" transform="translate(81.9681352627926 324.7600246135403) rotate(0 53.36888223159093 23.64721819326587)"><path d="M11.82 0 C38.21 0, 64.61 0, 94.91 0 M11.82 0 C41.31 0, 70.8 0, 94.91 0 M94.91 0 C102.8 0, 106.74 3.94, 106.74 11.82 M94.91 0 C102.8 0, 106.74 3.94, 106.74 11.82 M106.74 11.82 C106.74 18.83, 106.74 25.84, 106.74 35.47 M106.74 11.82 C106.74 18.78, 106.74 25.74, 106.74 35.47 M106.74 35.47 C106.74 43.35, 102.8 47.29, 94.91 47.29 M106.74 35.47 C106.74 43.35, 102.8 47.29, 94.91 47.29 M94.91 47.29 C73.4 47.29, 51.89 47.29, 11.82 47.29 M94.91 47.29 C65.79 47.29, 36.66 47.29, 11.82 47.29 M11.82 47.29 C3.94 47.29, 0 43.35, 0 35.47 M11.82 47.29 C3.94 47.29, 0 43.35, 0 35.47 M0 35.47 C0 27.56, 0 19.64, 0 11.82 M0 35.47 C0 29.61, 0 23.75, 0 11.82 M0 11.82 C0 3.94, 3.94 0, 11.82 0 M0 11.82 C0 3.94, 3.94 0, 11.82 0" stroke="#1e1e1e" stroke-width="2" fill="none"></path></g><g transform="translate(102.71613736743035 336.0221644021599) rotate(0 32.620880126953125 12.385078404646492)"><svg version="1.1" viewBox="0 0 65.24176025390625 24.770156809293123" width="65.24176025390625" height="24.770156809293123"><g font-family="Helvetica, Segoe UI Emoji" font-size="21.539266790689673px" color="#1e1e1e"><text style="white-space: pre;" fill="#1e1e1e" direction="ltr" text-anchor="start" x="0.5" y="19">X0=Y0</text></g></svg></g><g stroke-linecap="round" transform="translate(259.2418901014285 323.1779342165951) rotate(0 36.37004960953027 24.65086148401565)"><path d="M12.33 0 C28.35 0, 44.37 0, 60.41 0 M12.33 0 C27.78 0, 43.24 0, 60.41 0 M60.41 0 C68.63 0, 72.74 4.11, 72.74 12.33 M60.41 0 C68.63 0, 72.74 4.11, 72.74 12.33 M72.74 12.33 C72.74 20.2, 72.74 28.08, 72.74 36.98 M72.74 12.33 C72.74 17.36, 72.74 22.4, 72.74 36.98 M72.74 36.98 C72.74 45.19, 68.63 49.3, 60.41 49.3 M72.74 36.98 C72.74 45.19, 68.63 49.3, 60.41 49.3 M60.41 49.3 C43.9 49.3, 27.38 49.3, 12.33 49.3 M60.41 49.3 C45.98 49.3, 31.54 49.3, 12.33 49.3 M12.33 49.3 C4.11 49.3, 0 45.19, 0 36.98 M12.33 49.3 C4.11 49.3, 0 45.19, 0 36.98 M0 36.98 C0 28.68, 0 20.39, 0 12.33 M0 36.98 C0 27.12, 0 17.26, 0 12.33 M0 12.33 C0 4.11, 4.11 0, 12.33 0 M0 12.33 C0 4.11, 4.11 0, 12.33 0" stroke="#1e1e1e" stroke-width="2" fill="none"></path></g><g transform="translate(282.44479493556815 335.44371729596423) rotate(0 13.167144775390625 12.385078404646492)"><svg version="1.1" viewBox="0 0 26.33428955078125 24.770156809293123" width="26.33428955078125" height="24.770156809293123"><g font-family="Helvetica, Segoe UI Emoji" font-size="21.539266790689673px" color="#1e1e1e"><text style="white-space: pre;" fill="#1e1e1e" direction="ltr" text-anchor="start" x="0.5" y="19">X1</text></g></svg></g><g stroke-linecap="round"><g transform="translate(189.76483354531575 348.44029692716094) rotate(0 33.785968627854345 0)"><path d="M0 0 C11.26 0, 56.31 0, 67.57 0 M0 0 C11.26 0, 56.31 0, 67.57 0" stroke="#1e1e1e" stroke-width="2" fill="none"></path></g></g><mask></mask><g transform="translate(51.10129620020285 389.2771601645304) rotate(0 64.29807688064471 9.908062723717194)"><svg version="1.1" viewBox="0 0 128.5855096578598 19.816125447434498" width="128.5855096578598" height="19.816125447434498"><g font-family="Helvetica, Segoe UI Emoji" font-size="17.23141343255174px" color="#1971c2"><text style="white-space: pre;" fill="#1971c2" direction="ltr" text-anchor="start" x="0.5" y="15">HEAD, branch-Y</text></g></svg></g><g transform="translate(318.292775621875 389.2080470037922) rotate(0 35.312618250204935 9.908062723717194)"><svg version="1.1" viewBox="0 0 70.61941492557526 19.816125447434498" width="70.61941492557526" height="19.816125447434498"><g font-family="Helvetica, Segoe UI Emoji" font-size="17.23141343255174px" color="#1971c2"><text style="white-space: pre;" fill="#1971c2" direction="ltr" text-anchor="start" x="0.5" y="15">branch-X</text></g></svg></g><g stroke-linecap="round"><g stroke-opacity="0.5" fill-opacity="0.5" transform="translate(13.007924952215376 437.36874173720116) rotate(0 216.01618881357481 0)"><path d="M0 0 C72.01 0, 360.03 0, 432.03 0 M0 0 C72.01 0, 360.03 0, 432.03 0" stroke="#1e1e1e" stroke-width="2" fill="none"></path></g></g><mask></mask><g stroke-linecap="round" transform="translate(72.10026167510574 554.7716351546092) rotate(0 53.36888223159093 23.64721819326587)"><path d="M11.82 0 C36.99 0, 62.16 0, 94.91 0 M11.82 0 C43.39 0, 74.97 0, 94.91 0 M94.91 0 C102.8 0, 106.74 3.94, 106.74 11.82 M94.91 0 C102.8 0, 106.74 3.94, 106.74 11.82 M106.74 11.82 C106.74 21.03, 106.74 30.23, 106.74 35.47 M106.74 11.82 C106.74 17.75, 106.74 23.68, 106.74 35.47 M106.74 35.47 C106.74 43.35, 102.8 47.29, 94.91 47.29 M106.74 35.47 C106.74 43.35, 102.8 47.29, 94.91 47.29 M94.91 47.29 C71.36 47.29, 47.81 47.29, 11.82 47.29 M94.91 47.29 C68.62 47.29, 42.33 47.29, 11.82 47.29 M11.82 47.29 C3.94 47.29, 0 43.35, 0 35.47 M11.82 47.29 C3.94 47.29, 0 43.35, 0 35.47 M0 35.47 C0 28.57, 0 21.68, 0 11.82 M0 35.47 C0 28.38, 0 21.29, 0 11.82 M0 11.82 C0 3.94, 3.94 0, 11.82 0 M0 11.82 C0 3.94, 3.94 0, 11.82 0" stroke="#1e1e1e" stroke-width="2" fill="none"></path></g><g transform="translate(92.84826377974349 566.0337749432288) rotate(0 32.620880126953125 12.385078404646492)"><svg version="1.1" viewBox="0 0 65.24176025390625 24.770156809293123" width="65.24176025390625" height="24.770156809293123"><g font-family="Helvetica, Segoe UI Emoji" font-size="21.539266790689673px" color="#1e1e1e"><text style="white-space: pre;" fill="#1e1e1e" direction="ltr" text-anchor="start" x="0.5" y="19">X0=Y0</text></g></svg></g><g stroke-linecap="round" transform="translate(249.37401651374142 553.1895447576649) rotate(0 36.37004960953027 24.65086148401565)"><path d="M12.33 0 C22.42 0, 32.52 0, 60.41 0 M12.33 0 C23.88 0, 35.44 0, 60.41 0 M60.41 0 C68.63 0, 72.74 4.11, 72.74 12.33 M60.41 0 C68.63 0, 72.74 4.11, 72.74 12.33 M72.74 12.33 C72.74 20.34, 72.74 28.35, 72.74 36.98 M72.74 12.33 C72.74 17.81, 72.74 23.3, 72.74 36.98 M72.74 36.98 C72.74 45.19, 68.63 49.3, 60.41 49.3 M72.74 36.98 C72.74 45.19, 68.63 49.3, 60.41 49.3 M60.41 49.3 C50.27 49.3, 40.12 49.3, 12.33 49.3 M60.41 49.3 C49.04 49.3, 37.66 49.3, 12.33 49.3 M12.33 49.3 C4.11 49.3, 0 45.19, 0 36.98 M12.33 49.3 C4.11 49.3, 0 45.19, 0 36.98 M0 36.98 C0 30.17, 0 23.37, 0 12.33 M0 36.98 C0 27.81, 0 18.65, 0 12.33 M0 12.33 C0 4.11, 4.11 0, 12.33 0 M0 12.33 C0 4.11, 4.11 0, 12.33 0" stroke="#1e1e1e" stroke-width="2" fill="none"></path></g><g transform="translate(272.57692134788107 565.455327837034) rotate(0 13.167144775390625 12.385078404646492)"><svg version="1.1" viewBox="0 0 26.33428955078125 24.770156809293123" width="26.33428955078125" height="24.770156809293123"><g font-family="Helvetica, Segoe UI Emoji" font-size="21.539266790689673px" color="#1e1e1e"><text style="white-space: pre;" fill="#1e1e1e" direction="ltr" text-anchor="start" x="0.5" y="19">X1</text></g></svg></g><g stroke-linecap="round"><g transform="translate(180.2668656135907 578.581119029614) rotate(0 34.45328624400133 0)"><path d="M0 0 C11.48 0, 57.42 0, 68.91 0 M0 0 C11.48 0, 57.42 0, 68.91 0" stroke="#1e1e1e" stroke-width="2" fill="none"></path></g></g><mask></mask><g stroke-linecap="round" transform="translate(84.10266351365368 468.1172537265238) rotate(0 36.37004960953027 24.65086148401565)"><path d="M12.33 0 C23.96 0, 35.6 0, 60.41 0 M12.33 0 C29.48 0, 46.63 0, 60.41 0 M60.41 0 C68.63 0, 72.74 4.11, 72.74 12.33 M60.41 0 C68.63 0, 72.74 4.11, 72.74 12.33 M72.74 12.33 C72.74 17.91, 72.74 23.5, 72.74 36.98 M72.74 12.33 C72.74 18.24, 72.74 24.16, 72.74 36.98 M72.74 36.98 C72.74 45.19, 68.63 49.3, 60.41 49.3 M72.74 36.98 C72.74 45.19, 68.63 49.3, 60.41 49.3 M60.41 49.3 C41.91 49.3, 23.41 49.3, 12.33 49.3 M60.41 49.3 C42.01 49.3, 23.6 49.3, 12.33 49.3 M12.33 49.3 C4.11 49.3, 0 45.19, 0 36.98 M12.33 49.3 C4.11 49.3, 0 45.19, 0 36.98 M0 36.98 C0 27.65, 0 18.33, 0 12.33 M0 36.98 C0 30.07, 0 23.17, 0 12.33 M0 12.33 C0 4.11, 4.11 0, 12.33 0 M0 12.33 C0 4.11, 4.11 0, 12.33 0" stroke="#1e1e1e" stroke-width="2" fill="none"></path></g><g transform="translate(107.30556834779333 480.38303680589297) rotate(0 13.167144775390625 12.385078404646492)"><svg version="1.1" viewBox="0 0 26.33428955078125 24.770156809293123" width="26.33428955078125" height="24.770156809293123"><g font-family="Helvetica, Segoe UI Emoji" font-size="21.539266790689673px" color="#1e1e1e"><text style="white-space: pre;" fill="#1e1e1e" direction="ltr" text-anchor="start" x="0.5" y="19">Y1</text></g></svg></g><g stroke-linecap="round"><g transform="translate(122.93975246960628 518.829786649665) rotate(0 0.07662546082070776 17.562255128095103)"><path d="M0 0 C0.03 5.85, 0.13 29.27, 0.15 35.12 M0 0 C0.03 5.85, 0.13 29.27, 0.15 35.12" stroke="#1e1e1e" stroke-width="2" fill="none"></path></g></g><mask></mask><g transform="translate(160.96220760483408 471.4263317643654) rotate(0 64.29807688064471 9.908062723717194)"><svg version="1.1" viewBox="0 0 128.5855096578598 19.816125447434498" width="128.5855096578598" height="19.816125447434498"><g font-family="Helvetica, Segoe UI Emoji" font-size="17.23141343255174px" color="#1971c2"><text style="white-space: pre;" fill="#1971c2" direction="ltr" text-anchor="start" x="0.5" y="15">HEAD, branch-Y</text></g></svg></g><g transform="translate(327.36566422704703 595.5595782938562) rotate(0 35.312618250204935 9.908062723717194)"><svg version="1.1" viewBox="0 0 70.61941492557526 19.816125447434498" width="70.61941492557526" height="19.816125447434498"><g font-family="Helvetica, Segoe UI Emoji" font-size="17.23141343255174px" color="#1971c2"><text style="white-space: pre;" fill="#1971c2" direction="ltr" text-anchor="start" x="0.5" y="15">branch-X</text></g></svg></g></svg>