<svg version="1.1" xmlns="http://www.w3.org/2000/svg" viewBox="0 0 421.19087499918356 414.84375" width="421.19087499918356" height="414.84375">
  <!-- svg-source:excalidraw -->
  
  <defs>
    <style class="style-fonts">
      
    </style>
    
  </defs>
  <rect x="0" y="0" width="421.19087499918356" height="414.84375" fill="#ffffff"></rect><g stroke-linecap="round" transform="translate(13.69087499918362 31.078725961540385) rotate(0 35.186298076923066 22.591646634615245)"><path d="M11.3 0 C27.58 0, 43.87 0, 59.08 0 M11.3 0 C28.19 0, 45.08 0, 59.08 0 M59.08 0 C66.61 0, 70.37 3.77, 70.37 11.3 M59.08 0 C66.61 0, 70.37 3.77, 70.37 11.3 M70.37 11.3 C70.37 18.23, 70.37 25.17, 70.37 33.89 M70.37 11.3 C70.37 18.29, 70.37 25.29, 70.37 33.89 M70.37 33.89 C70.37 41.42, 66.61 45.18, 59.08 45.18 M70.37 33.89 C70.37 41.42, 66.61 45.18, 59.08 45.18 M59.08 45.18 C43.94 45.18, 28.8 45.18, 11.3 45.18 M59.08 45.18 C44.68 45.18, 30.29 45.18, 11.3 45.18 M11.3 45.18 C3.77 45.18, 0 41.42, 0 33.89 M11.3 45.18 C3.77 45.18, 0 41.42, 0 33.89 M0 33.89 C0 25.63, 0 17.37, 0 11.3 M0 33.89 C0 27.48, 0 21.08, 0 11.3 M0 11.3 C0 3.77, 3.77 0, 11.3 0 M0 11.3 C0 3.77, 3.77 0, 11.3 0" stroke="#1e1e1e" stroke-width="2" fill="none"></path></g><g transform="translate(36.64572776360666 42.17037259615563) rotate(0 12.2314453125 11.5)"><svg version="1.1" viewBox="0 0 24.462890625 23" width="24.462890625" height="23"><g font-family="Helvetica, Segoe UI Emoji" font-size="20px" color="#1e1e1e"><text style="white-space: pre;" fill="#1e1e1e" direction="ltr" text-anchor="start" x="0.5" y="18">X0</text></g></svg></g><g stroke-linecap="round" transform="translate(102.64219711456809 31.254507211540385) rotate(0 35.186298076923094 22.591646634615245)"><path d="M11.3 0 C27.05 0, 42.8 0, 59.08 0 M11.3 0 C21.98 0, 32.66 0, 59.08 0 M59.08 0 C66.61 0, 70.37 3.77, 70.37 11.3 M59.08 0 C66.61 0, 70.37 3.77, 70.37 11.3 M70.37 11.3 C70.37 19.55, 70.37 27.8, 70.37 33.89 M70.37 11.3 C70.37 18.49, 70.37 25.69, 70.37 33.89 M70.37 33.89 C70.37 41.42, 66.61 45.18, 59.08 45.18 M70.37 33.89 C70.37 41.42, 66.61 45.18, 59.08 45.18 M59.08 45.18 C45.3 45.18, 31.51 45.18, 11.3 45.18 M59.08 45.18 C43.23 45.18, 27.39 45.18, 11.3 45.18 M11.3 45.18 C3.77 45.18, 0 41.42, 0 33.89 M11.3 45.18 C3.77 45.18, 0 41.42, 0 33.89 M0 33.89 C0 27.53, 0 21.16, 0 11.3 M0 33.89 C0 28.03, 0 22.16, 0 11.3 M0 11.3 C0 3.77, 3.77 0, 11.3 0 M0 11.3 C0 3.77, 3.77 0, 11.3 0" stroke="#1e1e1e" stroke-width="2" fill="none"></path></g><g transform="translate(125.59704987899119 42.34615384615563) rotate(0 12.2314453125 11.5)"><svg version="1.1" viewBox="0 0 24.462890625 23" width="24.462890625" height="23"><g font-family="Helvetica, Segoe UI Emoji" font-size="20px" color="#1e1e1e"><text style="white-space: pre;" fill="#1e1e1e" direction="ltr" text-anchor="start" x="0.5" y="18">Y0</text></g></svg></g><g stroke-linecap="round" transform="translate(254.08750961456832 32.34825721153993) rotate(0 35.186298076923094 22.591646634615245)"><path d="M11.3 0 C28.76 0, 46.22 0, 59.08 0 M11.3 0 C29.37 0, 47.45 0, 59.08 0 M59.08 0 C66.61 0, 70.37 3.77, 70.37 11.3 M59.08 0 C66.61 0, 70.37 3.77, 70.37 11.3 M70.37 11.3 C70.37 16.26, 70.37 21.23, 70.37 33.89 M70.37 11.3 C70.37 19.12, 70.37 26.95, 70.37 33.89 M70.37 33.89 C70.37 41.42, 66.61 45.18, 59.08 45.18 M70.37 33.89 C70.37 41.42, 66.61 45.18, 59.08 45.18 M59.08 45.18 C47.34 45.18, 35.6 45.18, 11.3 45.18 M59.08 45.18 C45.67 45.18, 32.26 45.18, 11.3 45.18 M11.3 45.18 C3.77 45.18, 0 41.42, 0 33.89 M11.3 45.18 C3.77 45.18, 0 41.42, 0 33.89 M0 33.89 C0 29.22, 0 24.54, 0 11.3 M0 33.89 C0 25.08, 0 16.27, 0 11.3 M0 11.3 C0 3.77, 3.77 0, 11.3 0 M0 11.3 C0 3.77, 3.77 0, 11.3 0" stroke="#1e1e1e" stroke-width="2" fill="none"></path></g><g transform="translate(277.0423623789914 43.439903846155175) rotate(0 12.2314453125 11.5)"><svg version="1.1" viewBox="0 0 24.462890625 23" width="24.462890625" height="23"><g font-family="Helvetica, Segoe UI Emoji" font-size="20px" color="#1e1e1e"><text style="white-space: pre;" fill="#1e1e1e" direction="ltr" text-anchor="start" x="0.5" y="18">X0</text></g></svg></g><g stroke-opacity="0.4" fill-opacity="0.4" stroke-linecap="round" transform="translate(338.01779807610677 31.86748798077133) rotate(0 35.18629807692304 22.591646634615245)"><path d="M11.3 0 C20.98 0, 30.67 0, 59.08 0 M11.3 0 C29.63 0, 47.96 0, 59.08 0 M59.08 0 C66.61 0, 70.37 3.77, 70.37 11.3 M59.08 0 C66.61 0, 70.37 3.77, 70.37 11.3 M70.37 11.3 C70.37 17.21, 70.37 23.13, 70.37 33.89 M70.37 11.3 C70.37 16.82, 70.37 22.35, 70.37 33.89 M70.37 33.89 C70.37 41.42, 66.61 45.18, 59.08 45.18 M70.37 33.89 C70.37 41.42, 66.61 45.18, 59.08 45.18 M59.08 45.18 C47.29 45.18, 35.5 45.18, 11.3 45.18 M59.08 45.18 C46.31 45.18, 33.54 45.18, 11.3 45.18 M11.3 45.18 C3.77 45.18, 0 41.42, 0 33.89 M11.3 45.18 C3.77 45.18, 0 41.42, 0 33.89 M0 33.89 C0 28.8, 0 23.71, 0 11.3 M0 33.89 C0 27.25, 0 20.62, 0 11.3 M0 11.3 C0 3.77, 3.77 0, 11.3 0 M0 11.3 C0 3.77, 3.77 0, 11.3 0" stroke="#1e1e1e" stroke-width="2" fill="none"></path></g><g transform="translate(360.97265084052987 42.959134615386574) rotate(0 12.2314453125 11.5)"><svg version="1.1" viewBox="0 0 24.462890625 23" width="24.462890625" height="23"><g font-family="Helvetica, Segoe UI Emoji" font-size="20px" color="#1e1e1e" stroke-opacity="0.4" fill-opacity="0.4"><text style="white-space: pre;" fill="#1e1e1e" direction="ltr" text-anchor="start" x="0.5" y="18">Y0</text></g></svg></g><g stroke-linecap="round" transform="translate(14.490153845337545 129.59585336538657) rotate(0 35.186298076923066 22.591646634615245)"><path d="M11.3 0 C26.6 0, 41.89 0, 59.08 0 M11.3 0 C22.86 0, 34.42 0, 59.08 0 M59.08 0 C66.61 0, 70.37 3.77, 70.37 11.3 M59.08 0 C66.61 0, 70.37 3.77, 70.37 11.3 M70.37 11.3 C70.37 17.41, 70.37 23.52, 70.37 33.89 M70.37 11.3 C70.37 17.24, 70.37 23.18, 70.37 33.89 M70.37 33.89 C70.37 41.42, 66.61 45.18, 59.08 45.18 M70.37 33.89 C70.37 41.42, 66.61 45.18, 59.08 45.18 M59.08 45.18 C48.77 45.18, 38.46 45.18, 11.3 45.18 M59.08 45.18 C49.5 45.18, 39.93 45.18, 11.3 45.18 M11.3 45.18 C3.77 45.18, 0 41.42, 0 33.89 M11.3 45.18 C3.77 45.18, 0 41.42, 0 33.89 M0 33.89 C0 26.42, 0 18.95, 0 11.3 M0 33.89 C0 26.42, 0 18.95, 0 11.3 M0 11.3 C0 3.77, 3.77 0, 11.3 0 M0 11.3 C0 3.77, 3.77 0, 11.3 0" stroke="#1e1e1e" stroke-width="2" fill="none"></path></g><g transform="translate(37.44500660976058 140.68750000000182) rotate(0 12.2314453125 11.5)"><svg version="1.1" viewBox="0 0 24.462890625 23" width="24.462890625" height="23"><g font-family="Helvetica, Segoe UI Emoji" font-size="20px" color="#1e1e1e"><text style="white-space: pre;" fill="#1e1e1e" direction="ltr" text-anchor="start" x="0.5" y="18">X1</text></g></svg></g><g stroke-linecap="round" transform="translate(101.85493749918356 130.28996394230944) rotate(0 35.186298076923094 22.591646634615245)"><path d="M11.3 0 C22.64 0, 33.99 0, 59.08 0 M11.3 0 C28.24 0, 45.19 0, 59.08 0 M59.08 0 C66.61 0, 70.37 3.77, 70.37 11.3 M59.08 0 C66.61 0, 70.37 3.77, 70.37 11.3 M70.37 11.3 C70.37 19.49, 70.37 27.69, 70.37 33.89 M70.37 11.3 C70.37 17.7, 70.37 24.1, 70.37 33.89 M70.37 33.89 C70.37 41.42, 66.61 45.18, 59.08 45.18 M70.37 33.89 C70.37 41.42, 66.61 45.18, 59.08 45.18 M59.08 45.18 C48.69 45.18, 38.31 45.18, 11.3 45.18 M59.08 45.18 C46.23 45.18, 33.38 45.18, 11.3 45.18 M11.3 45.18 C3.77 45.18, 0 41.42, 0 33.89 M11.3 45.18 C3.77 45.18, 0 41.42, 0 33.89 M0 33.89 C0 28.74, 0 23.6, 0 11.3 M0 33.89 C0 28.72, 0 23.55, 0 11.3 M0 11.3 C0 3.77, 3.77 0, 11.3 0 M0 11.3 C0 3.77, 3.77 0, 11.3 0" stroke="#1e1e1e" stroke-width="2" fill="none"></path></g><g transform="translate(124.80979026360666 141.3816105769247) rotate(0 12.2314453125 11.5)"><svg version="1.1" viewBox="0 0 24.462890625 23" width="24.462890625" height="23"><g font-family="Helvetica, Segoe UI Emoji" font-size="20px" color="#1e1e1e"><text style="white-space: pre;" fill="#1e1e1e" direction="ltr" text-anchor="start" x="0.5" y="18">Y0</text></g></svg></g><g stroke-linecap="round"><g transform="translate(48.96431249918362 85.0540865384628) rotate(0 0.1352163461538396 18.972355769230944)"><path d="M0 0 C0.05 6.32, 0.23 31.62, 0.27 37.94 M0 0 C0.05 6.32, 0.23 31.62, 0.27 37.94" stroke="#1e1e1e" stroke-width="2" fill="none"></path></g><g transform="translate(48.96431249918362 85.0540865384628) rotate(0 0.1352163461538396 18.972355769230944)"><path d="M-6.35 20.16 C-3.9 26.75, -1.45 33.33, 0.27 37.94 M-6.35 20.16 C-3.98 26.53, -1.61 32.89, 0.27 37.94" stroke="#1e1e1e" stroke-width="2" fill="none"></path></g><g transform="translate(48.96431249918362 85.0540865384628) rotate(0 0.1352163461538396 18.972355769230944)"><path d="M6.63 20.07 C4.28 26.69, 1.92 33.31, 0.27 37.94 M6.63 20.07 C4.35 26.47, 2.08 32.87, 0.27 37.94" stroke="#1e1e1e" stroke-width="2" fill="none"></path></g></g><mask></mask><g stroke-linecap="round" transform="translate(254.8266923068757 129.601111778848) rotate(0 35.186298076923094 22.591646634615245)"><path d="M11.3 0 C27.41 0, 43.53 0, 59.08 0 M11.3 0 C25.08 0, 38.86 0, 59.08 0 M59.08 0 C66.61 0, 70.37 3.77, 70.37 11.3 M59.08 0 C66.61 0, 70.37 3.77, 70.37 11.3 M70.37 11.3 C70.37 18.2, 70.37 25.1, 70.37 33.89 M70.37 11.3 C70.37 20.2, 70.37 29.11, 70.37 33.89 M70.37 33.89 C70.37 41.42, 66.61 45.18, 59.08 45.18 M70.37 33.89 C70.37 41.42, 66.61 45.18, 59.08 45.18 M59.08 45.18 C44.55 45.18, 30.02 45.18, 11.3 45.18 M59.08 45.18 C45.21 45.18, 31.34 45.18, 11.3 45.18 M11.3 45.18 C3.77 45.18, 0 41.42, 0 33.89 M11.3 45.18 C3.77 45.18, 0 41.42, 0 33.89 M0 33.89 C0 27.82, 0 21.75, 0 11.3 M0 33.89 C0 27.94, 0 21.99, 0 11.3 M0 11.3 C0 3.77, 3.77 0, 11.3 0 M0 11.3 C0 3.77, 3.77 0, 11.3 0" stroke="#1e1e1e" stroke-width="2" fill="none"></path></g><g transform="translate(277.7815450712988 140.69275841346325) rotate(0 12.2314453125 11.5)"><svg version="1.1" viewBox="0 0 24.462890625 23" width="24.462890625" height="23"><g font-family="Helvetica, Segoe UI Emoji" font-size="20px" color="#1e1e1e"><text style="white-space: pre;" fill="#1e1e1e" direction="ltr" text-anchor="start" x="0.5" y="18">X1</text></g></svg></g><g stroke-linecap="round"><g transform="translate(289.3008509607217 85.05934495192423) rotate(0 0.13521634615381117 18.972355769230944)"><path d="M0 0 C0.05 6.32, 0.23 31.62, 0.27 37.94 M0 0 C0.05 6.32, 0.23 31.62, 0.27 37.94" stroke="#1e1e1e" stroke-width="2" fill="none"></path></g><g transform="translate(289.3008509607217 85.05934495192423) rotate(0 0.13521634615381117 18.972355769230944)"><path d="M-6.35 20.16 C-4.69 24.62, -3.03 29.08, 0.27 37.94 M-6.35 20.16 C-4.43 25.31, -2.52 30.45, 0.27 37.94" stroke="#1e1e1e" stroke-width="2" fill="none"></path></g><g transform="translate(289.3008509607217 85.05934495192423) rotate(0 0.13521634615381117 18.972355769230944)"><path d="M6.63 20.07 C5.04 24.55, 3.44 29.04, 0.27 37.94 M6.63 20.07 C4.79 25.24, 2.95 30.41, 0.27 37.94" stroke="#1e1e1e" stroke-width="2" fill="none"></path></g></g><mask></mask><g stroke-opacity="0.4" fill-opacity="0.4" stroke-linecap="round" transform="translate(339.6343846145683 130.30498798077133) rotate(0 35.186298076923094 22.591646634615245)"><path d="M11.3 0 C27.49 0, 43.69 0, 59.08 0 M11.3 0 C27.21 0, 43.13 0, 59.08 0 M59.08 0 C66.61 0, 70.37 3.77, 70.37 11.3 M59.08 0 C66.61 0, 70.37 3.77, 70.37 11.3 M70.37 11.3 C70.37 20, 70.37 28.71, 70.37 33.89 M70.37 11.3 C70.37 20.06, 70.37 28.82, 70.37 33.89 M70.37 33.89 C70.37 41.42, 66.61 45.18, 59.08 45.18 M70.37 33.89 C70.37 41.42, 66.61 45.18, 59.08 45.18 M59.08 45.18 C45.62 45.18, 32.16 45.18, 11.3 45.18 M59.08 45.18 C40.61 45.18, 22.15 45.18, 11.3 45.18 M11.3 45.18 C3.77 45.18, 0 41.42, 0 33.89 M11.3 45.18 C3.77 45.18, 0 41.42, 0 33.89 M0 33.89 C0 26.41, 0 18.93, 0 11.3 M0 33.89 C0 27.85, 0 21.82, 0 11.3 M0 11.3 C0 3.77, 3.77 0, 11.3 0 M0 11.3 C0 3.77, 3.77 0, 11.3 0" stroke="#1e1e1e" stroke-width="2" fill="none"></path></g><g transform="translate(362.5892373789914 141.39663461538657) rotate(0 12.2314453125 11.5)"><svg version="1.1" viewBox="0 0 24.462890625 23" width="24.462890625" height="23"><g font-family="Helvetica, Segoe UI Emoji" font-size="20px" color="#1e1e1e" stroke-opacity="0.4" fill-opacity="0.4"><text style="white-space: pre;" fill="#1e1e1e" direction="ltr" text-anchor="start" x="0.5" y="18">Y0</text></g></svg></g><g stroke-opacity="0.4" fill-opacity="0.4" stroke-linecap="round" transform="translate(255.50577884533726 200.17540564903902) rotate(0 35.18629807692304 22.591646634615245)"><path d="M11.3 0 C24.57 0, 37.84 0, 59.08 0 M11.3 0 C24.2 0, 37.1 0, 59.08 0 M59.08 0 C66.61 0, 70.37 3.77, 70.37 11.3 M59.08 0 C66.61 0, 70.37 3.77, 70.37 11.3 M70.37 11.3 C70.37 20.22, 70.37 29.15, 70.37 33.89 M70.37 11.3 C70.37 17.98, 70.37 24.66, 70.37 33.89 M70.37 33.89 C70.37 41.42, 66.61 45.18, 59.08 45.18 M70.37 33.89 C70.37 41.42, 66.61 45.18, 59.08 45.18 M59.08 45.18 C41.45 45.18, 23.82 45.18, 11.3 45.18 M59.08 45.18 C47.51 45.18, 35.93 45.18, 11.3 45.18 M11.3 45.18 C3.77 45.18, 0 41.42, 0 33.89 M11.3 45.18 C3.77 45.18, 0 41.42, 0 33.89 M0 33.89 C0 26.75, 0 19.6, 0 11.3 M0 33.89 C0 27.14, 0 20.39, 0 11.3 M0 11.3 C0 3.77, 3.77 0, 11.3 0 M0 11.3 C0 3.77, 3.77 0, 11.3 0" stroke="#1e1e1e" stroke-width="2" fill="none"></path></g><g transform="translate(278.46063160976036 211.26705228365427) rotate(0 12.2314453125 11.5)"><svg version="1.1" viewBox="0 0 24.462890625 23" width="24.462890625" height="23"><g font-family="Helvetica, Segoe UI Emoji" font-size="20px" color="#1e1e1e" stroke-opacity="0.4" fill-opacity="0.4"><text style="white-space: pre;" fill="#1e1e1e" direction="ltr" text-anchor="start" x="0.5" y="18">X1</text></g></svg></g><g stroke-linecap="round" transform="translate(340.31347115302987 200.8792818509619) rotate(0 35.18629807692304 22.591646634615245)"><path d="M11.3 0 C23.3 0, 35.31 0, 59.08 0 M11.3 0 C27.97 0, 44.65 0, 59.08 0 M59.08 0 C66.61 0, 70.37 3.77, 70.37 11.3 M59.08 0 C66.61 0, 70.37 3.77, 70.37 11.3 M70.37 11.3 C70.37 19.48, 70.37 27.66, 70.37 33.89 M70.37 11.3 C70.37 16.79, 70.37 22.29, 70.37 33.89 M70.37 33.89 C70.37 41.42, 66.61 45.18, 59.08 45.18 M70.37 33.89 C70.37 41.42, 66.61 45.18, 59.08 45.18 M59.08 45.18 C41.12 45.18, 23.16 45.18, 11.3 45.18 M59.08 45.18 C40.91 45.18, 22.74 45.18, 11.3 45.18 M11.3 45.18 C3.77 45.18, 0 41.42, 0 33.89 M11.3 45.18 C3.77 45.18, 0 41.42, 0 33.89 M0 33.89 C0 28.84, 0 23.78, 0 11.3 M0 33.89 C0 29.28, 0 24.67, 0 11.3 M0 11.3 C0 3.77, 3.77 0, 11.3 0 M0 11.3 C0 3.77, 3.77 0, 11.3 0" stroke="#1e1e1e" stroke-width="2" fill="none"></path></g><g transform="translate(363.26832391745296 211.97092848557713) rotate(0 12.2314453125 11.5)"><svg version="1.1" viewBox="0 0 24.462890625 23" width="24.462890625" height="23"><g font-family="Helvetica, Segoe UI Emoji" font-size="20px" color="#1e1e1e"><text style="white-space: pre;" fill="#1e1e1e" direction="ltr" text-anchor="start" x="0.5" y="18">Y0</text></g></svg></g><g stroke-linecap="round" transform="translate(103.16803846072213 232.01697716346143) rotate(0 35.186298076923094 22.591646634615245)"><path d="M11.3 0 C23.37 0, 35.45 0, 59.08 0 M11.3 0 C25.14 0, 38.98 0, 59.08 0 M59.08 0 C66.61 0, 70.37 3.77, 70.37 11.3 M59.08 0 C66.61 0, 70.37 3.77, 70.37 11.3 M70.37 11.3 C70.37 18.05, 70.37 24.8, 70.37 33.89 M70.37 11.3 C70.37 16.74, 70.37 22.18, 70.37 33.89 M70.37 33.89 C70.37 41.42, 66.61 45.18, 59.08 45.18 M70.37 33.89 C70.37 41.42, 66.61 45.18, 59.08 45.18 M59.08 45.18 C43.85 45.18, 28.62 45.18, 11.3 45.18 M59.08 45.18 C45.32 45.18, 31.56 45.18, 11.3 45.18 M11.3 45.18 C3.77 45.18, 0 41.42, 0 33.89 M11.3 45.18 C3.77 45.18, 0 41.42, 0 33.89 M0 33.89 C0 29.26, 0 24.62, 0 11.3 M0 33.89 C0 26.53, 0 19.17, 0 11.3 M0 11.3 C0 3.77, 3.77 0, 11.3 0 M0 11.3 C0 3.77, 3.77 0, 11.3 0" stroke="#1e1e1e" stroke-width="2" fill="none"></path></g><g transform="translate(126.12289122514522 243.10862379807668) rotate(0 12.2314453125 11.5)"><svg version="1.1" viewBox="0 0 24.462890625 23" width="24.462890625" height="23"><g font-family="Helvetica, Segoe UI Emoji" font-size="20px" color="#1e1e1e"><text style="white-space: pre;" fill="#1e1e1e" direction="ltr" text-anchor="start" x="0.5" y="18">Y1</text></g></svg></g><g stroke-linecap="round"><g transform="translate(137.6421971145681 187.47521033653766) rotate(0 0.13521634615381117 18.972355769230944)"><path d="M0 0 C0.05 6.32, 0.23 31.62, 0.27 37.94 M0 0 C0.05 6.32, 0.23 31.62, 0.27 37.94" stroke="#1e1e1e" stroke-width="2" fill="none"></path></g><g transform="translate(137.6421971145681 187.47521033653766) rotate(0 0.13521634615381117 18.972355769230944)"><path d="M-6.35 20.16 C-3.73 27.19, -1.12 34.22, 0.27 37.94 M-6.35 20.16 C-4 26.47, -1.65 32.79, 0.27 37.94" stroke="#1e1e1e" stroke-width="2" fill="none"></path></g><g transform="translate(137.6421971145681 187.47521033653766) rotate(0 0.13521634615381117 18.972355769230944)"><path d="M6.63 20.07 C4.12 27.14, 1.6 34.2, 0.27 37.94 M6.63 20.07 C4.37 26.41, 2.12 32.76, 0.27 37.94" stroke="#1e1e1e" stroke-width="2" fill="none"></path></g></g><mask></mask><g stroke-linecap="round" transform="translate(340.8182788453374 298.96409254807713) rotate(0 35.186298076923094 22.591646634615245)"><path d="M11.3 0 C24.22 0, 37.13 0, 59.08 0 M11.3 0 C26.53 0, 41.77 0, 59.08 0 M59.08 0 C66.61 0, 70.37 3.77, 70.37 11.3 M59.08 0 C66.61 0, 70.37 3.77, 70.37 11.3 M70.37 11.3 C70.37 19.74, 70.37 28.19, 70.37 33.89 M70.37 11.3 C70.37 16.79, 70.37 22.29, 70.37 33.89 M70.37 33.89 C70.37 41.42, 66.61 45.18, 59.08 45.18 M70.37 33.89 C70.37 41.42, 66.61 45.18, 59.08 45.18 M59.08 45.18 C48.59 45.18, 38.11 45.18, 11.3 45.18 M59.08 45.18 C49.26 45.18, 39.45 45.18, 11.3 45.18 M11.3 45.18 C3.77 45.18, 0 41.42, 0 33.89 M11.3 45.18 C3.77 45.18, 0 41.42, 0 33.89 M0 33.89 C0 26, 0 18.1, 0 11.3 M0 33.89 C0 25.17, 0 16.46, 0 11.3 M0 11.3 C0 3.77, 3.77 0, 11.3 0 M0 11.3 C0 3.77, 3.77 0, 11.3 0" stroke="#1e1e1e" stroke-width="2" fill="none"></path></g><g transform="translate(363.77313160976047 310.0557391826924) rotate(0 12.2314453125 11.5)"><svg version="1.1" viewBox="0 0 24.462890625 23" width="24.462890625" height="23"><g font-family="Helvetica, Segoe UI Emoji" font-size="20px" color="#1e1e1e"><text style="white-space: pre;" fill="#1e1e1e" direction="ltr" text-anchor="start" x="0.5" y="18">Y1</text></g></svg></g><g stroke-linecap="round"><g transform="translate(375.29243749918334 254.42232572115336) rotate(0 0.13521634615381117 18.972355769230944)"><path d="M0 0 C0.05 6.32, 0.23 31.62, 0.27 37.94 M0 0 C0.05 6.32, 0.23 31.62, 0.27 37.94" stroke="#1e1e1e" stroke-width="2" fill="none"></path></g><g transform="translate(375.29243749918334 254.42232572115336) rotate(0 0.13521634615381117 18.972355769230944)"><path d="M-6.35 20.16 C-3.74 27.18, -1.13 34.19, 0.27 37.94 M-6.35 20.16 C-3.76 27.12, -1.17 34.08, 0.27 37.94" stroke="#1e1e1e" stroke-width="2" fill="none"></path></g><g transform="translate(375.29243749918334 254.42232572115336) rotate(0 0.13521634615381117 18.972355769230944)"><path d="M6.63 20.07 C4.12 27.12, 1.61 34.17, 0.27 37.94 M6.63 20.07 C4.14 27.07, 1.65 34.06, 0.27 37.94" stroke="#1e1e1e" stroke-width="2" fill="none"></path></g></g><mask></mask><g stroke-linecap="round"><g transform="translate(213.92825480687583 10) rotate(0 0 197.421875)"><path d="M0 0 C0 65.81, 0 329.04, 0 394.84 M0 0 C0 65.81, 0 329.04, 0 394.84" stroke="#1e1e1e" stroke-width="2" fill="none"></path></g></g><mask></mask><g transform="translate(10 373.00781250000045) rotate(0 88.15789723476044 11.421875)"><svg version="1.1" viewBox="0 0 171.57357668876648 22.84375" width="171.57357668876648" height="22.84375"><g font-family="Helvetica, Segoe UI Emoji" font-size="19.86413043478261px" color="#1e1e1e"><text style="white-space: pre;" fill="#1e1e1e" direction="ltr" text-anchor="start" x="0.5" y="18">Solution without Git</text></g></svg></g><g transform="translate(261.05609001642875 373.63221153846234) rotate(0 74.83457992706809 11.421875)"><svg version="1.1" viewBox="0 0 143.96548342704773 22.84375" width="143.96548342704773" height="22.84375"><g font-family="Helvetica, Segoe UI Emoji" font-size="19.86413043478261px" color="#1e1e1e"><text style="white-space: pre;" fill="#1e1e1e" direction="ltr" text-anchor="start" x="0.5" y="18">Solution with Git</text></g></svg></g></svg>